<mxfile host="65bd71144e">
    <diagram id="rsAqUs10-lQo4--ijtWV" name="Page-1">
        <mxGraphModel dx="733" dy="747" grid="1" gridSize="10" guides="1" tooltips="1" connect="1" arrows="1" fold="1" page="1" pageScale="1" pageWidth="420" pageHeight="580" background="#FFFFFF" math="0" shadow="0">
            <root>
                <mxCell id="0"/>
                <mxCell id="1" parent="0"/>
                <mxCell id="10" style="edgeStyle=none;html=1;entryX=0.5;entryY=0;entryDx=0;entryDy=0;fontFamily=Helvetica;labelBorderColor=none;fontStyle=1" edge="1" parent="1" source="2" target="3">
                    <mxGeometry relative="1" as="geometry"/>
                </mxCell>
                <mxCell id="2" value="开始" style="ellipse;whiteSpace=wrap;html=1;fillColor=#f8cecc;strokeColor=#b85450;fontFamily=Helvetica;labelBorderColor=none;fontStyle=1" vertex="1" parent="1">
                    <mxGeometry x="15" width="60" height="40" as="geometry"/>
                </mxCell>
                <mxCell id="11" style="edgeStyle=none;html=1;entryX=0.5;entryY=0;entryDx=0;entryDy=0;fontFamily=Helvetica;labelBorderColor=none;fontStyle=1" edge="1" parent="1" source="3" target="4">
                    <mxGeometry relative="1" as="geometry"/>
                </mxCell>
                <mxCell id="3" value="提交账号和密码" style="rounded=1;whiteSpace=wrap;html=1;fontFamily=Helvetica;labelBorderColor=none;fontStyle=1" vertex="1" parent="1">
                    <mxGeometry y="75" width="90" height="50" as="geometry"/>
                </mxCell>
                <mxCell id="12" style="edgeStyle=none;html=1;exitX=0.5;exitY=1;exitDx=0;exitDy=0;entryX=0.5;entryY=0;entryDx=0;entryDy=0;fontFamily=Helvetica;labelBorderColor=none;fontStyle=1" edge="1" parent="1" source="4" target="5">
                    <mxGeometry relative="1" as="geometry"/>
                </mxCell>
                <mxCell id="17" style="edgeStyle=orthogonalEdgeStyle;html=1;exitX=1;exitY=0.5;exitDx=0;exitDy=0;entryX=1;entryY=0.5;entryDx=0;entryDy=0;fontFamily=Helvetica;labelBorderColor=none;fontStyle=1" edge="1" parent="1" source="4" target="3">
                    <mxGeometry relative="1" as="geometry">
                        <Array as="points">
                            <mxPoint x="120" y="195"/>
                            <mxPoint x="120" y="100"/>
                        </Array>
                    </mxGeometry>
                </mxCell>
                <mxCell id="4" value="校验密码格式" style="rhombus;whiteSpace=wrap;html=1;fontFamily=Helvetica;labelBorderColor=none;fontStyle=1" vertex="1" parent="1">
                    <mxGeometry x="5" y="165" width="80" height="60" as="geometry"/>
                </mxCell>
                <mxCell id="13" style="edgeStyle=none;html=1;exitX=0.5;exitY=1;exitDx=0;exitDy=0;entryX=0.5;entryY=0;entryDx=0;entryDy=0;fontFamily=Helvetica;labelBorderColor=none;fontStyle=1" edge="1" parent="1" source="5" target="7">
                    <mxGeometry relative="1" as="geometry"/>
                </mxCell>
                <mxCell id="5" value="根据账户查询并验证密码" style="rounded=1;whiteSpace=wrap;html=1;fillColor=#f8cecc;strokeColor=#b85450;fontFamily=Helvetica;labelBorderColor=none;fontStyle=1" vertex="1" parent="1">
                    <mxGeometry y="260" width="90" height="50" as="geometry"/>
                </mxCell>
                <mxCell id="14" style="edgeStyle=none;html=1;exitX=0.5;exitY=1;exitDx=0;exitDy=0;entryX=0.5;entryY=0;entryDx=0;entryDy=0;fontFamily=Helvetica;labelBorderColor=none;fontStyle=1" edge="1" parent="1" source="7" target="8">
                    <mxGeometry relative="1" as="geometry"/>
                </mxCell>
                <mxCell id="18" style="edgeStyle=orthogonalEdgeStyle;html=1;exitX=1;exitY=0.5;exitDx=0;exitDy=0;entryX=1;entryY=0.5;entryDx=0;entryDy=0;fontFamily=Helvetica;labelBorderColor=none;fontStyle=1" edge="1" parent="1" source="7" target="3">
                    <mxGeometry relative="1" as="geometry">
                        <mxPoint x="120" y="105" as="targetPoint"/>
                        <Array as="points">
                            <mxPoint x="160" y="375"/>
                            <mxPoint x="160" y="100"/>
                        </Array>
                    </mxGeometry>
                </mxCell>
                <mxCell id="7" value="密码是否正确" style="rhombus;whiteSpace=wrap;html=1;fillColor=#f8cecc;strokeColor=#b85450;fontFamily=Helvetica;labelBorderColor=none;fontStyle=1" vertex="1" parent="1">
                    <mxGeometry x="5" y="345" width="80" height="60" as="geometry"/>
                </mxCell>
                <mxCell id="15" style="edgeStyle=none;html=1;exitX=0.5;exitY=1;exitDx=0;exitDy=0;entryX=0.5;entryY=0;entryDx=0;entryDy=0;fontFamily=Helvetica;labelBorderColor=none;fontStyle=1" edge="1" parent="1" source="8" target="9">
                    <mxGeometry relative="1" as="geometry"/>
                </mxCell>
                <mxCell id="8" value="保存用户到session" style="rounded=1;whiteSpace=wrap;html=1;fontFamily=Helvetica;labelBorderColor=none;fontStyle=1" vertex="1" parent="1">
                    <mxGeometry y="445" width="90" height="50" as="geometry"/>
                </mxCell>
                <mxCell id="9" value="结束" style="ellipse;whiteSpace=wrap;html=1;strokeColor=#b51c1c;fontColor=#ce2727;fontFamily=Helvetica;labelBorderColor=none;fontStyle=1" vertex="1" parent="1">
                    <mxGeometry x="15" y="535" width="60" height="40" as="geometry"/>
                </mxCell>
                <mxCell id="19" value="不正确" style="text;html=1;align=center;verticalAlign=middle;resizable=0;points=[];autosize=1;strokeColor=none;fillColor=none;fontFamily=Helvetica;labelBorderColor=none;fontStyle=1" vertex="1" parent="1">
                    <mxGeometry x="70" y="135" width="60" height="30" as="geometry"/>
                </mxCell>
                <mxCell id="20" value="不匹配" style="text;html=1;align=center;verticalAlign=middle;resizable=0;points=[];autosize=1;strokeColor=none;fillColor=none;fontFamily=Helvetica;labelBorderColor=none;fontStyle=1" vertex="1" parent="1">
                    <mxGeometry x="110" y="225" width="60" height="30" as="geometry"/>
                </mxCell>
                <mxCell id="22" value="匹配" style="text;html=1;align=center;verticalAlign=middle;resizable=0;points=[];autosize=1;strokeColor=none;fillColor=none;fontFamily=Helvetica;labelBorderColor=none;fontStyle=1" vertex="1" parent="1">
                    <mxGeometry x="36" y="405" width="50" height="30" as="geometry"/>
                </mxCell>
                <mxCell id="23" value="正确" style="text;html=1;align=center;verticalAlign=middle;resizable=0;points=[];autosize=1;strokeColor=none;fillColor=none;fontFamily=Helvetica;labelBorderColor=none;fontStyle=1" vertex="1" parent="1">
                    <mxGeometry x="36" y="225" width="50" height="30" as="geometry"/>
                </mxCell>
                <mxCell id="24" style="edgeStyle=none;html=1;entryX=0.5;entryY=0;entryDx=0;entryDy=0;fontFamily=Helvetica;labelBorderColor=none;fontStyle=1" edge="1" parent="1" source="25" target="27">
                    <mxGeometry relative="1" as="geometry"/>
                </mxCell>
                <mxCell id="25" value="开始" style="ellipse;whiteSpace=wrap;html=1;fillColor=#f8cecc;strokeColor=#b85450;fontFamily=Helvetica;labelBorderColor=none;fontStyle=1" vertex="1" parent="1">
                    <mxGeometry x="235" y="4" width="60" height="40" as="geometry"/>
                </mxCell>
                <mxCell id="26" style="edgeStyle=none;html=1;entryX=0.5;entryY=0;entryDx=0;entryDy=0;fontFamily=Helvetica;labelBorderColor=none;fontStyle=1" edge="1" parent="1" source="27" target="43">
                    <mxGeometry relative="1" as="geometry">
                        <mxPoint x="265" y="169" as="targetPoint"/>
                    </mxGeometry>
                </mxCell>
                <mxCell id="27" value="请求携带cookie" style="rounded=1;whiteSpace=wrap;html=1;fontFamily=Helvetica;labelBorderColor=none;fontStyle=1" vertex="1" parent="1">
                    <mxGeometry x="220" y="79" width="90" height="50" as="geometry"/>
                </mxCell>
                <mxCell id="28" style="edgeStyle=none;html=1;exitX=0.5;exitY=1;exitDx=0;exitDy=0;entryX=0.5;entryY=0;entryDx=0;entryDy=0;fontFamily=Helvetica;labelBorderColor=none;fontStyle=1" edge="1" parent="1" source="43" target="44">
                    <mxGeometry relative="1" as="geometry">
                        <mxPoint x="265" y="229" as="sourcePoint"/>
                        <mxPoint x="265" y="264" as="targetPoint"/>
                    </mxGeometry>
                </mxCell>
                <mxCell id="31" style="edgeStyle=none;html=1;exitX=0.5;exitY=1;exitDx=0;exitDy=0;entryX=0.5;entryY=0;entryDx=0;entryDy=0;fontFamily=Helvetica;labelBorderColor=none;fontStyle=1" edge="1" parent="1" target="37">
                    <mxGeometry relative="1" as="geometry">
                        <mxPoint x="265" y="314" as="sourcePoint"/>
                        <mxPoint x="265" y="349" as="targetPoint"/>
                    </mxGeometry>
                </mxCell>
                <mxCell id="36" style="edgeStyle=none;html=1;exitX=0.5;exitY=1;exitDx=0;exitDy=0;entryX=0.5;entryY=0;entryDx=0;entryDy=0;fontFamily=Helvetica;labelBorderColor=none;fontStyle=1" edge="1" parent="1" source="37" target="38">
                    <mxGeometry relative="1" as="geometry"/>
                </mxCell>
                <mxCell id="37" value="保存用户到ThreadLocal" style="rounded=1;whiteSpace=wrap;html=1;fontFamily=Helvetica;labelBorderColor=none;fontStyle=1" vertex="1" parent="1">
                    <mxGeometry x="220" y="405" width="90" height="50" as="geometry"/>
                </mxCell>
                <mxCell id="38" value="结束" style="ellipse;whiteSpace=wrap;html=1;strokeColor=#b51c1c;fontColor=#ce2727;fontFamily=Helvetica;labelBorderColor=none;fontStyle=1" vertex="1" parent="1">
                    <mxGeometry x="235" y="535" width="60" height="40" as="geometry"/>
                </mxCell>
                <mxCell id="43" value="从session获取用户" style="rounded=1;whiteSpace=wrap;html=1;fontFamily=Helvetica;labelBorderColor=none;fontStyle=1" vertex="1" parent="1">
                    <mxGeometry x="220" y="185" width="90" height="50" as="geometry"/>
                </mxCell>
                <mxCell id="45" style="edgeStyle=orthogonalEdgeStyle;html=1;fontFamily=Helvetica;labelBorderColor=none;fontStyle=1" edge="1" parent="1" source="44">
                    <mxGeometry relative="1" as="geometry">
                        <mxPoint x="380" y="415" as="targetPoint"/>
                    </mxGeometry>
                </mxCell>
                <mxCell id="44" value="判断用户是否存在" style="rhombus;whiteSpace=wrap;html=1;fillColor=#f8cecc;strokeColor=#b85450;fontFamily=Helvetica;labelBorderColor=none;fontStyle=1" vertex="1" parent="1">
                    <mxGeometry x="225" y="285" width="80" height="60" as="geometry"/>
                </mxCell>
                <mxCell id="47" style="edgeStyle=orthogonalEdgeStyle;html=1;entryX=1;entryY=0.5;entryDx=0;entryDy=0;fontFamily=Helvetica;labelBorderColor=none;fontStyle=1" edge="1" parent="1" source="46" target="38">
                    <mxGeometry relative="1" as="geometry">
                        <Array as="points">
                            <mxPoint x="380" y="555"/>
                        </Array>
                    </mxGeometry>
                </mxCell>
                <mxCell id="46" value="拦截" style="rounded=1;whiteSpace=wrap;html=1;fontFamily=Helvetica;labelBorderColor=none;fontStyle=1" vertex="1" parent="1">
                    <mxGeometry x="340" y="415" width="80" height="30" as="geometry"/>
                </mxCell>
                <mxCell id="48" value="否" style="text;html=1;align=center;verticalAlign=middle;resizable=0;points=[];autosize=1;strokeColor=none;fillColor=none;fontFamily=Helvetica;fontColor=#050505;" vertex="1" parent="1">
                    <mxGeometry x="314" y="287" width="40" height="30" as="geometry"/>
                </mxCell>
                <mxCell id="49" value="是" style="text;html=1;align=center;verticalAlign=middle;resizable=0;points=[];autosize=1;strokeColor=none;fillColor=none;fontFamily=Helvetica;fontColor=#080808;" vertex="1" parent="1">
                    <mxGeometry x="254" y="360" width="40" height="30" as="geometry"/>
                </mxCell>
            </root>
        </mxGraphModel>
    </diagram>
</mxfile>